<?xml version="1.0" encoding="UTF-8" standalone="no"?>
<!-- Created with Inkscape (http://www.inkscape.org/) -->

<svg
   version="1.1"
   id="svg1"
   width="32"
   height="32"
   viewBox="0 0 32 32"
   xmlns="http://www.w3.org/2000/svg"
   xmlns:svg="http://www.w3.org/2000/svg">
  <defs
     id="defs1" />
  <g
     id="g1">
    <g
       id="g2"
       transform="matrix(0.12851406,0,0,0.12812962,-0.06425703,-0.01027692)">
      <path
         style="fill:#8c8c8c;fill-opacity:1"
         d="M 44.225313,248.9311 C 26.075466,246.57282 8.6035971,231.25612 2.7154611,212.54153 0.50484204,205.51539 0.5,205.32406 0.5,125 0.5,44.675938 0.50484204,44.48461 2.7154611,37.458475 8.7609441,18.243774 25.905799,3.51422 45.130828,1.0184198 c 9.636009,-1.25095009 150.102332,-1.25095009 159.738342,0 C 224.0942,3.51422 241.23906,18.243774 247.28454,37.458475 249.49516,44.48461 249.5,44.675938 249.5,125 c 0,80.32406 -0.005,80.51539 -2.21546,87.54153 -6.04548,19.2147 -23.19034,33.94425 -42.41537,36.44005 -8.92002,1.158 -151.688391,1.11313 -160.643857,-0.0505 z M 206.6446,138.28345 c 10.59648,-5.66705 10.36056,-20.57227 -0.41036,-25.92699 C 202.74182,110.62022 199.16505,110.5 151,110.5 c -51.263932,0 -51.518998,0.0102 -55.644603,2.21655 -2.875407,1.53779 -4.789336,3.5484 -6.25,6.56573 -2.618642,5.40939 -2.62596,7.01093 -0.05629,12.31916 2.307712,4.7671 5.178779,7.00502 10.684297,8.32812 2.071626,0.49785 26.041596,0.82987 53.266596,0.73782 49.04124,-0.16583 49.53841,-0.18792 53.6446,-2.38393 z m 0,-68.000004 C 217.24108,64.616399 217.00516,49.711184 206.23424,44.356462 202.89612,42.696931 199.84803,42.5 177.5,42.5 c -23.90093,0 -25.18221,0.09745 -29.1446,2.216554 -2.87541,1.537782 -4.78934,3.548395 -6.25,6.565725 -2.61864,5.409392 -2.62596,7.010933 -0.0563,12.319163 4.07944,8.427002 7.74743,9.316398 37.45089,9.080905 21.64724,-0.171622 23.24377,-0.312715 27.1446,-2.398901 z m 0,137.000004 c 10.59648,-5.66705 10.36056,-20.57227 -0.41036,-25.92699 C 202.74182,179.62022 199.16505,179.5 151,179.5 c -51.26393,0 -105.519,0.0102 -109.6446,2.21655 -2.87541,1.53779 -4.789339,3.5484 -6.250003,6.56573 -2.618642,5.40939 -2.62596,7.01093 -0.05629,12.31916 2.307712,4.7671 5.178783,7.00502 10.684293,8.32812 2.07163,0.49785 80.0416,0.82987 107.2666,0.73782 49.04124,-0.16583 49.53841,-0.18792 53.6446,-2.38393 z"
         id="path2" />
    </g>
  </g>
</svg>
